<?xml version="1.0" encoding="us-ascii" standalone="no"?><svg xmlns="http://www.w3.org/2000/svg" xmlns:xlink="http://www.w3.org/1999/xlink" contentStyleType="text/css" height="1550px" preserveAspectRatio="none" style="width:1373px;height:1550px;background:#FFFFFF;" version="1.1" viewBox="0 0 1373 1550" width="1373px" zoomAndPan="magnify"><defs/><g><line style="stroke:#181818;stroke-width:0.5;stroke-dasharray:5.0,5.0;" x1="22" x2="22" y1="82.6094" y2="1468.0234"/><line style="stroke:#181818;stroke-width:0.5;stroke-dasharray:5.0,5.0;" x1="103" x2="103" y1="82.6094" y2="1468.0234"/><line style="stroke:#181818;stroke-width:0.5;stroke-dasharray:5.0,5.0;" x1="278" x2="278" y1="82.6094" y2="1468.0234"/><line style="stroke:#181818;stroke-width:0.5;stroke-dasharray:5.0,5.0;" x1="463.5" x2="463.5" y1="82.6094" y2="1468.0234"/><line style="stroke:#181818;stroke-width:0.5;stroke-dasharray:5.0,5.0;" x1="622.5" x2="622.5" y1="82.6094" y2="1468.0234"/><line style="stroke:#181818;stroke-width:0.5;stroke-dasharray:5.0,5.0;" x1="748.5" x2="748.5" y1="82.6094" y2="1468.0234"/><line style="stroke:#181818;stroke-width:0.5;stroke-dasharray:5.0,5.0;" x1="890.5" x2="890.5" y1="82.6094" y2="1468.0234"/><line style="stroke:#181818;stroke-width:0.5;stroke-dasharray:5.0,5.0;" x1="1145.5" x2="1145.5" y1="82.6094" y2="1468.0234"/><line style="stroke:#181818;stroke-width:0.5;stroke-dasharray:5.0,5.0;" x1="1312" x2="1312" y1="82.6094" y2="1468.0234"/><text fill="#000000" font-family="sans-serif" font-size="14" lengthAdjust="spacing" textLength="29" x="5" y="79.5332">User</text><ellipse cx="22.5" cy="13.5" fill="#E2E2F0" rx="8" ry="8" style="stroke:#181818;stroke-width:0.5;"/><path d="M22.5,21.5 L22.5,48.5 M9.5,29.5 L35.5,29.5 M22.5,48.5 L9.5,63.5 M22.5,48.5 L35.5,63.5 " fill="none" style="stroke:#181818;stroke-width:0.5;"/><text fill="#000000" font-family="sans-serif" font-size="14" lengthAdjust="spacing" textLength="29" x="5" y="1481.5566">User</text><ellipse cx="22.5" cy="1493.1328" fill="#E2E2F0" rx="8" ry="8" style="stroke:#181818;stroke-width:0.5;"/><path d="M22.5,1501.1328 L22.5,1528.1328 M9.5,1509.1328 L35.5,1509.1328 M22.5,1528.1328 L9.5,1543.1328 M22.5,1528.1328 L35.5,1543.1328 " fill="none" style="stroke:#181818;stroke-width:0.5;"/><rect fill="#E2E2F0" height="31.6094" rx="2.5" ry="2.5" style="stroke:#181818;stroke-width:0.5;" width="106" x="50" y="50"/><text fill="#000000" font-family="sans-serif" font-size="14" lengthAdjust="spacing" textLength="92" x="57" y="71.5332">data.download</text><rect fill="#E2E2F0" height="31.6094" rx="2.5" ry="2.5" style="stroke:#181818;stroke-width:0.5;" width="106" x="50" y="1467.0234"/><text fill="#000000" font-family="sans-serif" font-size="14" lengthAdjust="spacing" textLength="92" x="57" y="1488.5566">data.download</text><rect fill="#E2E2F0" height="31.6094" rx="2.5" ry="2.5" style="stroke:#181818;stroke-width:0.5;" width="74" x="241" y="50"/><text fill="#000000" font-family="sans-serif" font-size="14" lengthAdjust="spacing" textLength="60" x="248" y="71.5332">data.crud</text><rect fill="#E2E2F0" height="31.6094" rx="2.5" ry="2.5" style="stroke:#181818;stroke-width:0.5;" width="74" x="241" y="1467.0234"/><text fill="#000000" font-family="sans-serif" font-size="14" lengthAdjust="spacing" textLength="60" x="248" y="1488.5566">data.crud</text><rect fill="#E2E2F0" height="31.6094" rx="2.5" ry="2.5" style="stroke:#181818;stroke-width:0.5;" width="123" x="402.5" y="50"/><text fill="#000000" font-family="sans-serif" font-size="14" lengthAdjust="spacing" textLength="109" x="409.5" y="71.5332">data.orm_models</text><rect fill="#E2E2F0" height="31.6094" rx="2.5" ry="2.5" style="stroke:#181818;stroke-width:0.5;" width="123" x="402.5" y="1467.0234"/><text fill="#000000" font-family="sans-serif" font-size="14" lengthAdjust="spacing" textLength="109" x="409.5" y="1488.5566">data.orm_models</text><rect fill="#E2E2F0" height="31.6094" rx="2.5" ry="2.5" style="stroke:#181818;stroke-width:0.5;" width="105" x="570.5" y="50"/><text fill="#000000" font-family="sans-serif" font-size="14" lengthAdjust="spacing" textLength="91" x="577.5" y="71.5332">data.database</text><rect fill="#E2E2F0" height="31.6094" rx="2.5" ry="2.5" style="stroke:#181818;stroke-width:0.5;" width="105" x="570.5" y="1467.0234"/><text fill="#000000" font-family="sans-serif" font-size="14" lengthAdjust="spacing" textLength="91" x="577.5" y="1488.5566">data.database</text><rect fill="#E2E2F0" height="31.6094" rx="2.5" ry="2.5" style="stroke:#181818;stroke-width:0.5;" width="127" x="685.5" y="50"/><text fill="#000000" font-family="sans-serif" font-size="14" lengthAdjust="spacing" textLength="113" x="692.5" y="71.5332">model.preprocess</text><rect fill="#E2E2F0" height="31.6094" rx="2.5" ry="2.5" style="stroke:#181818;stroke-width:0.5;" width="127" x="685.5" y="1467.0234"/><text fill="#000000" font-family="sans-serif" font-size="14" lengthAdjust="spacing" textLength="113" x="692.5" y="1488.5566">model.preprocess</text><rect fill="#E2E2F0" height="31.6094" rx="2.5" ry="2.5" style="stroke:#181818;stroke-width:0.5;" width="127" x="827.5" y="50"/><text fill="#000000" font-family="sans-serif" font-size="14" lengthAdjust="spacing" textLength="113" x="834.5" y="71.5332">model.lstm_model</text><rect fill="#E2E2F0" height="31.6094" rx="2.5" ry="2.5" style="stroke:#181818;stroke-width:0.5;" width="127" x="827.5" y="1467.0234"/><text fill="#000000" font-family="sans-serif" font-size="14" lengthAdjust="spacing" textLength="113" x="834.5" y="1488.5566">model.lstm_model</text><rect fill="#E2E2F0" height="31.6094" rx="2.5" ry="2.5" style="stroke:#181818;stroke-width:0.5;" width="61" x="1115.5" y="50"/><text fill="#000000" font-family="sans-serif" font-size="14" lengthAdjust="spacing" textLength="47" x="1122.5" y="71.5332">app.api</text><rect fill="#E2E2F0" height="31.6094" rx="2.5" ry="2.5" style="stroke:#181818;stroke-width:0.5;" width="61" x="1115.5" y="1467.0234"/><text fill="#000000" font-family="sans-serif" font-size="14" lengthAdjust="spacing" textLength="47" x="1122.5" y="1488.5566">app.api</text><rect fill="#E2E2F0" height="31.6094" rx="2.5" ry="2.5" style="stroke:#181818;stroke-width:0.5;" width="98" x="1263" y="50"/><text fill="#000000" font-family="sans-serif" font-size="14" lengthAdjust="spacing" textLength="84" x="1270" y="71.5332">app.schemas</text><rect fill="#E2E2F0" height="31.6094" rx="2.5" ry="2.5" style="stroke:#181818;stroke-width:0.5;" width="98" x="1263" y="1467.0234"/><text fill="#000000" font-family="sans-serif" font-size="14" lengthAdjust="spacing" textLength="84" x="1270" y="1488.5566">app.schemas</text><rect fill="#EEEEEE" height="3" style="stroke:#EEEEEE;stroke-width:1.0;" width="1366" x="0" y="113.7852"/><line style="stroke:#000000;stroke-width:1.0;" x1="0" x2="1366" y1="113.7852" y2="113.7852"/><line style="stroke:#000000;stroke-width:1.0;" x1="0" x2="1366" y1="116.7852" y2="116.7852"/><rect fill="#EEEEEE" height="24.3516" style="stroke:#000000;stroke-width:2.0;" width="267" x="549.5" y="102.6094"/><text fill="#000000" font-family="sans-serif" font-size="13" font-weight="bold" lengthAdjust="spacing" textLength="249" x="555.5" y="120.1045">Extra&#231;&#227;o dos dados Raw + Persist&#234;ncia</text><line style="stroke:#181818;stroke-width:1.0;" x1="103" x2="145" y1="159.3125" y2="159.3125"/><line style="stroke:#181818;stroke-width:1.0;" x1="145" x2="145" y1="159.3125" y2="172.3125"/><line style="stroke:#181818;stroke-width:1.0;" x1="104" x2="145" y1="172.3125" y2="172.3125"/><polygon fill="#181818" points="114,168.3125,104,172.3125,114,176.3125,110,172.3125" style="stroke:#181818;stroke-width:1.0;"/><text fill="#000000" font-family="sans-serif" font-size="13" lengthAdjust="spacing" textLength="156" x="110" y="154.4561">Baixa dados raw (yfinance)</text><polygon fill="#181818" points="266,198.6641,276,202.6641,266,206.6641,270,202.6641" style="stroke:#181818;stroke-width:1.0;"/><line style="stroke:#181818;stroke-width:1.0;" x1="103" x2="272" y1="202.6641" y2="202.6641"/><text fill="#000000" font-family="sans-serif" font-size="13" lengthAdjust="spacing" textLength="151" x="110" y="197.8076">Salva dados raw no banco</text><polygon fill="#181818" points="452,229.0156,462,233.0156,452,237.0156,456,233.0156" style="stroke:#181818;stroke-width:1.0;"/><line style="stroke:#181818;stroke-width:1.0;" x1="278" x2="458" y1="233.0156" y2="233.0156"/><text fill="#000000" font-family="sans-serif" font-size="13" lengthAdjust="spacing" textLength="115" x="285" y="228.1592">Instancia objeto raw</text><polygon fill="#181818" points="611,259.3672,621,263.3672,611,267.3672,615,263.3672" style="stroke:#181818;stroke-width:1.0;"/><line style="stroke:#181818;stroke-width:1.0;" x1="464" x2="617" y1="263.3672" y2="263.3672"/><text fill="#000000" font-family="sans-serif" font-size="13" lengthAdjust="spacing" textLength="98" x="471" y="258.5107">Insere dados raw</text><polygon fill="#181818" points="475,289.7188,465,293.7188,475,297.7188,471,293.7188" style="stroke:#181818;stroke-width:1.0;"/><line style="stroke:#181818;stroke-width:1.0;stroke-dasharray:2.0,2.0;" x1="469" x2="622" y1="293.7188" y2="293.7188"/><text fill="#000000" font-family="sans-serif" font-size="13" lengthAdjust="spacing" textLength="72" x="481" y="288.8623">Confirma&#231;&#227;o</text><polygon fill="#181818" points="289,320.0703,279,324.0703,289,328.0703,285,324.0703" style="stroke:#181818;stroke-width:1.0;"/><line style="stroke:#181818;stroke-width:1.0;stroke-dasharray:2.0,2.0;" x1="283" x2="463" y1="324.0703" y2="324.0703"/><text fill="#000000" font-family="sans-serif" font-size="13" lengthAdjust="spacing" textLength="72" x="295" y="319.2139">Confirma&#231;&#227;o</text><polygon fill="#181818" points="114,350.4219,104,354.4219,114,358.4219,110,354.4219" style="stroke:#181818;stroke-width:1.0;"/><line style="stroke:#181818;stroke-width:1.0;stroke-dasharray:2.0,2.0;" x1="108" x2="277" y1="354.4219" y2="354.4219"/><text fill="#000000" font-family="sans-serif" font-size="13" lengthAdjust="spacing" textLength="51" x="120" y="349.5654">Sucesso</text><rect fill="#EEEEEE" height="3" style="stroke:#EEEEEE;stroke-width:1.0;" width="1366" x="0" y="383.5977"/><line style="stroke:#000000;stroke-width:1.0;" x1="0" x2="1366" y1="383.5977" y2="383.5977"/><line style="stroke:#000000;stroke-width:1.0;" x1="0" x2="1366" y1="386.5977" y2="386.5977"/><rect fill="#EEEEEE" height="24.3516" style="stroke:#000000;stroke-width:2.0;" width="284" x="541" y="372.4219"/><text fill="#000000" font-family="sans-serif" font-size="13" font-weight="bold" lengthAdjust="spacing" textLength="266" x="547" y="389.917">Tratamento dos dados Raw + Persist&#234;ncia</text><polygon fill="#181818" points="289,425.125,279,429.125,289,433.125,285,429.125" style="stroke:#181818;stroke-width:1.0;"/><line style="stroke:#181818;stroke-width:1.0;" x1="283" x2="748" y1="429.125" y2="429.125"/><text fill="#000000" font-family="sans-serif" font-size="13" lengthAdjust="spacing" textLength="157" x="295" y="424.2686">Busca dados raw no banco</text><polygon fill="#181818" points="452,455.4766,462,459.4766,452,463.4766,456,459.4766" style="stroke:#181818;stroke-width:1.0;"/><line style="stroke:#181818;stroke-width:1.0;" x1="278" x2="458" y1="459.4766" y2="459.4766"/><text fill="#000000" font-family="sans-serif" font-size="13" lengthAdjust="spacing" textLength="106" x="285" y="454.6201">Query (dados raw)</text><polygon fill="#181818" points="611,485.8281,621,489.8281,611,493.8281,615,489.8281" style="stroke:#181818;stroke-width:1.0;"/><line style="stroke:#181818;stroke-width:1.0;" x1="464" x2="617" y1="489.8281" y2="489.8281"/><text fill="#000000" font-family="sans-serif" font-size="13" lengthAdjust="spacing" textLength="101" x="471" y="484.9717">Executa consulta</text><polygon fill="#181818" points="475,516.1797,465,520.1797,475,524.1797,471,520.1797" style="stroke:#181818;stroke-width:1.0;"/><line style="stroke:#181818;stroke-width:1.0;stroke-dasharray:2.0,2.0;" x1="469" x2="622" y1="520.1797" y2="520.1797"/><text fill="#000000" font-family="sans-serif" font-size="13" lengthAdjust="spacing" textLength="108" x="481" y="515.3232">Retorna dados raw</text><polygon fill="#181818" points="289,546.5313,279,550.5313,289,554.5313,285,550.5313" style="stroke:#181818;stroke-width:1.0;"/><line style="stroke:#181818;stroke-width:1.0;stroke-dasharray:2.0,2.0;" x1="283" x2="463" y1="550.5313" y2="550.5313"/><text fill="#000000" font-family="sans-serif" font-size="13" lengthAdjust="spacing" textLength="84" x="295" y="545.6748">Retorna dados</text><polygon fill="#181818" points="737,576.8828,747,580.8828,737,584.8828,741,580.8828" style="stroke:#181818;stroke-width:1.0;"/><line style="stroke:#181818;stroke-width:1.0;stroke-dasharray:2.0,2.0;" x1="278" x2="743" y1="580.8828" y2="580.8828"/><text fill="#000000" font-family="sans-serif" font-size="13" lengthAdjust="spacing" textLength="61" x="285" y="576.0264">Dados raw</text><line style="stroke:#181818;stroke-width:1.0;" x1="749" x2="791" y1="611.2344" y2="611.2344"/><line style="stroke:#181818;stroke-width:1.0;" x1="791" x2="791" y1="611.2344" y2="624.2344"/><line style="stroke:#181818;stroke-width:1.0;" x1="750" x2="791" y1="624.2344" y2="624.2344"/><polygon fill="#181818" points="760,620.2344,750,624.2344,760,628.2344,756,624.2344" style="stroke:#181818;stroke-width:1.0;"/><text fill="#000000" font-family="sans-serif" font-size="13" lengthAdjust="spacing" textLength="128" x="756" y="606.3779">Limpeza/Feature Eng.</text><polygon fill="#181818" points="289,650.5859,279,654.5859,289,658.5859,285,654.5859" style="stroke:#181818;stroke-width:1.0;"/><line style="stroke:#181818;stroke-width:1.0;" x1="283" x2="748" y1="654.5859" y2="654.5859"/><text fill="#000000" font-family="sans-serif" font-size="13" lengthAdjust="spacing" textLength="178" x="295" y="649.7295">Salva dados tratados no banco</text><polygon fill="#181818" points="452,680.9375,462,684.9375,452,688.9375,456,684.9375" style="stroke:#181818;stroke-width:1.0;"/><line style="stroke:#181818;stroke-width:1.0;" x1="278" x2="458" y1="684.9375" y2="684.9375"/><text fill="#000000" font-family="sans-serif" font-size="13" lengthAdjust="spacing" textLength="162" x="285" y="680.0811">Instancia objeto processado</text><polygon fill="#181818" points="611,711.2891,621,715.2891,611,719.2891,615,715.2891" style="stroke:#181818;stroke-width:1.0;"/><line style="stroke:#181818;stroke-width:1.0;" x1="464" x2="617" y1="715.2891" y2="715.2891"/><text fill="#000000" font-family="sans-serif" font-size="13" lengthAdjust="spacing" textLength="125" x="471" y="710.4326">Insere dados tratados</text><polygon fill="#181818" points="475,741.6406,465,745.6406,475,749.6406,471,745.6406" style="stroke:#181818;stroke-width:1.0;"/><line style="stroke:#181818;stroke-width:1.0;stroke-dasharray:2.0,2.0;" x1="469" x2="622" y1="745.6406" y2="745.6406"/><text fill="#000000" font-family="sans-serif" font-size="13" lengthAdjust="spacing" textLength="72" x="481" y="740.7842">Confirma&#231;&#227;o</text><polygon fill="#181818" points="289,771.9922,279,775.9922,289,779.9922,285,775.9922" style="stroke:#181818;stroke-width:1.0;"/><line style="stroke:#181818;stroke-width:1.0;stroke-dasharray:2.0,2.0;" x1="283" x2="463" y1="775.9922" y2="775.9922"/><text fill="#000000" font-family="sans-serif" font-size="13" lengthAdjust="spacing" textLength="72" x="295" y="771.1357">Confirma&#231;&#227;o</text><polygon fill="#181818" points="737,802.3438,747,806.3438,737,810.3438,741,806.3438" style="stroke:#181818;stroke-width:1.0;"/><line style="stroke:#181818;stroke-width:1.0;stroke-dasharray:2.0,2.0;" x1="278" x2="743" y1="806.3438" y2="806.3438"/><text fill="#000000" font-family="sans-serif" font-size="13" lengthAdjust="spacing" textLength="51" x="285" y="801.4873">Sucesso</text><rect fill="#EEEEEE" height="3" style="stroke:#EEEEEE;stroke-width:1.0;" width="1366" x="0" y="835.5195"/><line style="stroke:#000000;stroke-width:1.0;" x1="0" x2="1366" y1="835.5195" y2="835.5195"/><line style="stroke:#000000;stroke-width:1.0;" x1="0" x2="1366" y1="838.5195" y2="838.5195"/><rect fill="#EEEEEE" height="24.3516" style="stroke:#000000;stroke-width:2.0;" width="170" x="598" y="824.3438"/><text fill="#000000" font-family="sans-serif" font-size="13" font-weight="bold" lengthAdjust="spacing" textLength="152" x="604" y="841.8389">Treinamento do Modelo</text><polygon fill="#181818" points="289,877.0469,279,881.0469,289,885.0469,285,881.0469" style="stroke:#181818;stroke-width:1.0;"/><line style="stroke:#181818;stroke-width:1.0;" x1="283" x2="890" y1="881.0469" y2="881.0469"/><text fill="#000000" font-family="sans-serif" font-size="13" lengthAdjust="spacing" textLength="184" x="295" y="876.1904">Busca dados tratados no banco</text><polygon fill="#181818" points="452,907.3984,462,911.3984,452,915.3984,456,911.3984" style="stroke:#181818;stroke-width:1.0;"/><line style="stroke:#181818;stroke-width:1.0;" x1="278" x2="458" y1="911.3984" y2="911.3984"/><text fill="#000000" font-family="sans-serif" font-size="13" lengthAdjust="spacing" textLength="133" x="285" y="906.542">Query (dados tratados)</text><polygon fill="#181818" points="611,937.75,621,941.75,611,945.75,615,941.75" style="stroke:#181818;stroke-width:1.0;"/><line style="stroke:#181818;stroke-width:1.0;" x1="464" x2="617" y1="941.75" y2="941.75"/><text fill="#000000" font-family="sans-serif" font-size="13" lengthAdjust="spacing" textLength="101" x="471" y="936.8936">Executa consulta</text><polygon fill="#181818" points="475,968.1016,465,972.1016,475,976.1016,471,972.1016" style="stroke:#181818;stroke-width:1.0;"/><line style="stroke:#181818;stroke-width:1.0;stroke-dasharray:2.0,2.0;" x1="469" x2="622" y1="972.1016" y2="972.1016"/><text fill="#000000" font-family="sans-serif" font-size="13" lengthAdjust="spacing" textLength="135" x="481" y="967.2451">Retorna dados tratados</text><polygon fill="#181818" points="289,998.4531,279,1002.4531,289,1006.4531,285,1002.4531" style="stroke:#181818;stroke-width:1.0;"/><line style="stroke:#181818;stroke-width:1.0;stroke-dasharray:2.0,2.0;" x1="283" x2="463" y1="1002.4531" y2="1002.4531"/><text fill="#000000" font-family="sans-serif" font-size="13" lengthAdjust="spacing" textLength="84" x="295" y="997.5967">Retorna dados</text><polygon fill="#181818" points="879,1028.8047,889,1032.8047,879,1036.8047,883,1032.8047" style="stroke:#181818;stroke-width:1.0;"/><line style="stroke:#181818;stroke-width:1.0;stroke-dasharray:2.0,2.0;" x1="278" x2="885" y1="1032.8047" y2="1032.8047"/><text fill="#000000" font-family="sans-serif" font-size="13" lengthAdjust="spacing" textLength="88" x="285" y="1027.9482">Dados tratados</text><line style="stroke:#181818;stroke-width:1.0;" x1="891" x2="933" y1="1063.1563" y2="1063.1563"/><line style="stroke:#181818;stroke-width:1.0;" x1="933" x2="933" y1="1063.1563" y2="1076.1563"/><line style="stroke:#181818;stroke-width:1.0;" x1="892" x2="933" y1="1076.1563" y2="1076.1563"/><polygon fill="#181818" points="902,1072.1563,892,1076.1563,902,1080.1563,898,1076.1563" style="stroke:#181818;stroke-width:1.0;"/><text fill="#000000" font-family="sans-serif" font-size="13" lengthAdjust="spacing" textLength="119" x="898" y="1058.2998">Treina modelo LSTM</text><line style="stroke:#181818;stroke-width:1.0;" x1="891" x2="933" y1="1106.5078" y2="1106.5078"/><line style="stroke:#181818;stroke-width:1.0;" x1="933" x2="933" y1="1106.5078" y2="1119.5078"/><line style="stroke:#181818;stroke-width:1.0;" x1="892" x2="933" y1="1119.5078" y2="1119.5078"/><polygon fill="#181818" points="902,1115.5078,892,1119.5078,902,1123.5078,898,1119.5078" style="stroke:#181818;stroke-width:1.0;"/><text fill="#000000" font-family="sans-serif" font-size="13" lengthAdjust="spacing" textLength="138" x="898" y="1101.6514">Salva estado do modelo</text><rect fill="#EEEEEE" height="3" style="stroke:#EEEEEE;stroke-width:1.0;" width="1366" x="0" y="1148.6836"/><line style="stroke:#000000;stroke-width:1.0;" x1="0" x2="1366" y1="1148.6836" y2="1148.6836"/><line style="stroke:#000000;stroke-width:1.0;" x1="0" x2="1366" y1="1151.6836" y2="1151.6836"/><rect fill="#EEEEEE" height="24.3516" style="stroke:#000000;stroke-width:2.0;" width="133" x="616.5" y="1137.5078"/><text fill="#000000" font-family="sans-serif" font-size="13" font-weight="bold" lengthAdjust="spacing" textLength="115" x="622.5" y="1155.0029">Infer&#234;ncia Via API</text><polygon fill="#181818" points="1134,1190.2109,1144,1194.2109,1134,1198.2109,1138,1194.2109" style="stroke:#181818;stroke-width:1.0;"/><line style="stroke:#181818;stroke-width:1.0;" x1="22.5" x2="1140" y1="1194.2109" y2="1194.2109"/><text fill="#000000" font-family="sans-serif" font-size="13" lengthAdjust="spacing" textLength="242" x="29.5" y="1189.3545">POST /predict (envia dados para previs&#227;o)</text><polygon fill="#181818" points="1300,1220.5625,1310,1224.5625,1300,1228.5625,1304,1224.5625" style="stroke:#181818;stroke-width:1.0;"/><line style="stroke:#181818;stroke-width:1.0;" x1="1146" x2="1306" y1="1224.5625" y2="1224.5625"/><text fill="#000000" font-family="sans-serif" font-size="13" lengthAdjust="spacing" textLength="140" x="1153" y="1219.7061">Valida dados de entrada</text><polygon fill="#181818" points="1157,1250.9141,1147,1254.9141,1157,1258.9141,1153,1254.9141" style="stroke:#181818;stroke-width:1.0;"/><line style="stroke:#181818;stroke-width:1.0;stroke-dasharray:2.0,2.0;" x1="1151" x2="1311" y1="1254.9141" y2="1254.9141"/><text fill="#000000" font-family="sans-serif" font-size="13" lengthAdjust="spacing" textLength="94" x="1163" y="1250.0576">Dados validados</text><polygon fill="#181818" points="902,1281.2656,892,1285.2656,902,1289.2656,898,1285.2656" style="stroke:#181818;stroke-width:1.0;"/><line style="stroke:#181818;stroke-width:1.0;" x1="896" x2="1145" y1="1285.2656" y2="1285.2656"/><text fill="#000000" font-family="sans-serif" font-size="13" lengthAdjust="spacing" textLength="231" x="908" y="1280.4092">Faz infer&#234;ncia com modelo j&#225; carregado</text><line style="stroke:#181818;stroke-width:1.0;" x1="891" x2="933" y1="1315.6172" y2="1315.6172"/><line style="stroke:#181818;stroke-width:1.0;" x1="933" x2="933" y1="1315.6172" y2="1328.6172"/><line style="stroke:#181818;stroke-width:1.0;" x1="892" x2="933" y1="1328.6172" y2="1328.6172"/><polygon fill="#181818" points="902,1324.6172,892,1328.6172,902,1332.6172,898,1328.6172" style="stroke:#181818;stroke-width:1.0;"/><text fill="#000000" font-family="sans-serif" font-size="13" lengthAdjust="spacing" textLength="96" x="898" y="1310.7607">Realiza predi&#231;&#227;o</text><polygon fill="#181818" points="1134,1354.9688,1144,1358.9688,1134,1362.9688,1138,1358.9688" style="stroke:#181818;stroke-width:1.0;"/><line style="stroke:#181818;stroke-width:1.0;stroke-dasharray:2.0,2.0;" x1="891" x2="1140" y1="1358.9688" y2="1358.9688"/><text fill="#000000" font-family="sans-serif" font-size="13" lengthAdjust="spacing" textLength="129" x="898" y="1354.1123">Resultado da predi&#231;&#227;o</text><polygon fill="#181818" points="1300,1385.3203,1310,1389.3203,1300,1393.3203,1304,1389.3203" style="stroke:#181818;stroke-width:1.0;"/><line style="stroke:#181818;stroke-width:1.0;" x1="1146" x2="1306" y1="1389.3203" y2="1389.3203"/><text fill="#000000" font-family="sans-serif" font-size="13" lengthAdjust="spacing" textLength="142" x="1153" y="1384.4639">Valida/serializa resposta</text><polygon fill="#181818" points="1157,1415.6719,1147,1419.6719,1157,1423.6719,1153,1419.6719" style="stroke:#181818;stroke-width:1.0;"/><line style="stroke:#181818;stroke-width:1.0;stroke-dasharray:2.0,2.0;" x1="1151" x2="1311" y1="1419.6719" y2="1419.6719"/><text fill="#000000" font-family="sans-serif" font-size="13" lengthAdjust="spacing" textLength="105" x="1163" y="1414.8154">Resposta validada</text><polygon fill="#181818" points="33.5,1446.0234,23.5,1450.0234,33.5,1454.0234,29.5,1450.0234" style="stroke:#181818;stroke-width:1.0;"/><line style="stroke:#181818;stroke-width:1.0;stroke-dasharray:2.0,2.0;" x1="27.5" x2="1145" y1="1450.0234" y2="1450.0234"/><text fill="#000000" font-family="sans-serif" font-size="13" lengthAdjust="spacing" textLength="98" x="39.5" y="1445.167">Retorna predi&#231;&#227;o</text><!--SRC=[lPNTRjf048Nl_HHp2Qg0-qXKQbeY8IKACJItrR0xf1lPkzRkcX3Ufkf5fRu6BzPT_-0V7EAaKYwm49upi_ETOuFCAWtV3UaWc4vXjhCQ3tyElnLmPO2ZluRu19zWGTe8Omz_9HC8qsd0qUAOgoSPAUGm-WpD7oxW4iKEYnxQzHWyRuH4oMZuWfRfrEkM66thEgbWxMGgg8fAXTBnZrXnYepJpQMnc9rEhH_9AYyEscN7SxhB6WtbEj9K3GoQ1QFEOL-Lt0WTvx1EfxHMwgZEz-Z0jamP6QCoFrRQtOn9sXv-PAF7YQP4Az-XZVKoDUmzMEzIqiymE0g7VPZETiHIYy2KD6baiHVJq9cc9RQTECEreMXnFU5n0T-EZJjfTIYkHPpG7YTNX3Pr8Pd9X_6hfEi1jjv1_-NTAIw6k2Pl3dCv_8CJtS6n6Mfoxu4orN3ZgrMLuCZOOkgv1B-PQoF6fVgZijmquhy2NSDJ1lhOlPDWXont8B-Zu7gvkkchpADDni_pvkKjCbldSaEwU1tTky-NnToRwlzRV3DCaZ4cmlLOt2vNC77nu89P693SYf9JWXfTu6ahZ8lLC2X5XTwmdnIZntkFaU2bYXEuC6da6DIhHesfEQfjfijOrNftB7g5Un2rZPYAIrwFXr_0K6jwyCzaJt0XkSdxR3akyeVcLDauS4XPsZpdXkmrA1C7NEJ3D9b4EQ_EO0cBaf8CLkrTNMPUbShg5Fy0]--></g></svg>